<?xml version="1.0" standalone="no"?>
<!DOCTYPE svg PUBLIC "-//W3C//DTD SVG 20010904//EN"
 "http://www.w3.org/TR/2001/REC-SVG-20010904/DTD/svg10.dtd">
<svg version="1.0" xmlns="http://www.w3.org/2000/svg"
 width="194.000000pt" height="170.000000pt" viewBox="0 0 194.000000 170.000000"
 preserveAspectRatio="xMidYMid meet">

<g transform="translate(0.000000,170.000000) scale(0.100000,-0.100000)"
fill="#b22" stroke="none" >
<path d="M630 1675 c0 -26 -36 -88 -72 -122 -44 -43 -100 -64 -164 -64 -61 0
-65 -8 -37 -66 24 -52 79 -100 133 -118 41 -14 108 -15 496 -13 441 3 450 3
490 25 43 23 90 72 104 107 25 69 27 66 -43 66 -104 0 -189 59 -222 156 l-13
39 -336 3 c-298 2 -336 1 -336 -13z"/>
<path d="M480 1185 c-51 -52 -92 -68 -166 -63 l-64 4 0 -52 c0 -41 6 -59 30
-92 16 -23 43 -48 60 -57 l30 -16 0 -212 0 -212 195 0 195 0 0 75 c0 98 13
143 56 190 96 106 265 86 331 -39 19 -37 23 -59 23 -133 l0 -88 200 0 200 0 0
206 0 205 52 48 c51 47 52 50 58 113 l5 65 -62 -5 c-72 -5 -140 21 -175 69
l-22 29 -456 0 -456 0 -34 -35z"/>
</g>
</svg>
